<svg width="332" height="146" viewBox="0 0 332 146" fill="none" xmlns="http://www.w3.org/2000/svg">
<g id="Frame 1312321053">
<g id="Group 632959">
<g id="dialpad">
<path d="M78.0545 106.499C66.4056 106.499 58.0381 97.0986 58.0381 84.2356C58.0381 71.3725 66.4056 62.055 78.0545 62.055C83.4688 62.055 88.6369 64.776 90.9339 68.3216V45.3989H100.45V105.674H90.9339V100.15C88.6369 103.695 83.4688 106.499 78.0545 106.499ZM79.6131 98.1706C85.7657 98.1706 90.3596 93.3881 90.9339 86.8741V81.4321C90.3596 74.9181 85.7657 70.383 79.6131 70.383C72.7222 70.383 67.8002 75.9075 67.8002 84.1531C67.8002 92.3987 72.7222 98.1706 79.6131 98.1706Z" fill="#10022C"/>
<path d="M115.678 105.674H106.08V62.8795H115.678V105.674ZM110.756 57.0252C107.393 57.0252 104.85 54.3866 104.85 51.0059C104.85 47.7077 107.393 45.0691 110.756 45.0691C114.284 45.0691 116.909 47.7077 116.909 51.0059C116.909 54.3866 114.284 57.0252 110.756 57.0252Z" fill="#10022C"/>
<path d="M172.12 105.674H162.522V45.3989H172.12V105.674Z" fill="#10022C"/>
<path d="M177.962 121.093V62.8795H187.56V68.4041C189.775 64.8585 194.943 62.055 200.603 62.055C212.088 62.055 220.456 71.4549 220.456 84.318C220.456 97.1811 212.088 106.499 200.439 106.499C194.943 106.499 189.775 103.695 187.56 100.15V121.093H177.962ZM198.881 98.1706C205.69 98.1706 210.694 92.646 210.694 84.4005C210.694 76.1549 205.69 70.383 199.045 70.383C192.646 70.383 188.134 75.1654 187.56 81.6794V87.1215C188.052 93.6355 192.646 98.1706 198.881 98.1706Z" fill="#10022C"/>
<path d="M285.254 106.499C273.605 106.499 265.237 97.0986 265.237 84.2356C265.237 71.3725 273.605 62.055 285.254 62.055C290.668 62.055 295.836 64.776 298.133 68.3216V45.3989H307.649V105.674H298.133V100.15C295.836 103.695 290.668 106.499 285.254 106.499ZM286.812 98.1706C292.965 98.1706 297.559 93.3881 298.133 86.8741V81.4321C297.559 74.9181 292.965 70.383 286.812 70.383C279.921 70.383 274.999 75.9075 274.999 84.1531C274.999 92.3987 279.921 98.1706 286.812 98.1706Z" fill="#10022C"/>
<path fill-rule="evenodd" clip-rule="evenodd" d="M223.672 94.0478C223.672 101.221 229.906 106.499 238.52 106.499C243.114 106.499 247.872 104.767 250.989 100.067V105.674H260.505V77.9689C260.505 67.9918 253.286 62.055 242.704 62.055C232.342 62.055 226.385 67.8255 224.369 74.2583L233.473 75.4568C234.795 71.8997 237.797 69.476 242.704 69.476C247.462 69.476 250.989 72.2795 250.989 77.3917V78.8759L238.602 80.69C229.25 82.0092 223.672 86.5443 223.672 94.0478ZM240.161 99.3249C236.059 99.3249 233.434 96.8513 233.434 93.6355C233.434 90.1724 235.813 88.2759 240.161 87.5338L250.989 85.6373V90.832C249.512 95.2846 245.903 99.3249 240.161 99.3249Z" fill="#10022C"/>
<path fill-rule="evenodd" clip-rule="evenodd" d="M120.05 94.0476C120.05 101.221 126.284 106.498 134.898 106.498C139.492 106.498 144.25 104.767 147.367 100.067V105.674H156.883V77.9687C156.883 67.9916 149.664 62.0548 139.082 62.0548C128.72 62.0548 122.763 67.8253 120.747 74.2581L129.851 75.4566C131.173 71.8995 134.176 69.4758 139.082 69.4758C143.84 69.4758 147.367 72.2793 147.367 77.3916V78.8758L134.98 80.6898C125.628 82.0091 120.05 86.5441 120.05 94.0476ZM136.539 99.3248C132.437 99.3248 129.812 96.8511 129.812 93.6353C129.812 90.1722 132.191 88.2757 136.539 87.5336L147.367 85.6371V90.8318C145.89 95.2844 142.281 99.3248 136.539 99.3248Z" fill="#10022C"/>
</g>
<path id="Union" d="M67.3113 44.9586C67.9208 45.0949 68.0417 46.0897 67.4718 46.3489C56.4717 50.0934 47.8132 59.6668 43.2922 72.411C43.0448 73.0289 41.9593 72.8798 41.8573 72.2204C40.3108 62.2251 33.405 54.2445 24.5086 52.091C23.9191 51.9483 23.8077 51.0222 24.3565 50.76C35.6512 46.1128 44.1398 36.5799 48.0621 24.4006C48.3071 23.7651 49.4906 23.9256 49.5913 24.6007C51.112 34.7954 58.2031 42.9218 67.3113 44.9586Z" fill="#7C52FF"/>
</g>
</g>
</svg>
